# xmcd CD database file
#
# Track frame offsets:
#	150
#	19636
#	39282
#	58307
#	71608
#	98264
#	127173
#	149261
#	169476
#	188432
#
# Disc length: 2838 seconds
#
# Revision: 0
# Processed by: cddbd v1.5.2PL0 Copyright (c) Steve Scherf et al.
# Submitted via: CDex 1.70beta2
#
DISCID=850b140a
DTITLE=Aina Quach and Erick Manana - Ry iarivo tsy foiko
DYEAR=2008
DGENRE=Madagaskar
TTITLE0=Alahelo
TTITLE1=Mbola ho avy ny andro
TTITLE2=Raiso ny dimy
TTITLE3=Ny hefitrao
TTITLE4=Izay ratrano dia feriko
TTITLE5=Lasa i Rakoto Frah
TTITLE6=Zoke
TTITLE7=Voninkazo Adaladala
TTITLE8=Ry iarivo tsy foiko
TTITLE9=Aza hilaozana aho
EXTD=YEAR: 2008
EXTT0=
EXTT1=
EXTT2=
EXTT3=
EXTT4=
EXTT5=
EXTT6=
EXTT7=
EXTT8=
EXTT9=
PLAYORDER=
